<svg xmlns="http://www.w3.org/2000/svg" viewBox="0 0 256 256">

  <!-- Larger grassy clearing -->
  <circle
    cx="128"
    cy="128"
    r="125"
    fill="#cddbb3"
  />

  <!-- Standing stones (thick, irregular megaliths) -->
  <rect x="118" y="28" width="20" height="30" rx="3" ry="3"
        fill="#766652" stroke="#3b2f24" stroke-width="3"/>
  <rect x="198" y="68" width="22" height="36" rx="4" ry="4"
        fill="#766652" stroke="#3b2f24" stroke-width="3"
        transform="rotate(8 209 86)"/>
  <rect x="198" y="150" width="24" height="40" rx="4" ry="4"
        fill="#766652" stroke="#3b2f24" stroke-width="3"
        transform="rotate(-6 210 170)"/>
  <rect x="36" y="68" width="22" height="36" rx="4" ry="4"
        fill="#766652" stroke="#3b2f24" stroke-width="3"
        transform="rotate(-6 47 86)"/>
  <rect x="34" y="150" width="24" height="40" rx="4" ry="4"
        fill="#766652" stroke="#3b2f24" stroke-width="3"
        transform="rotate(5 46 170)"/>
  <rect x="88" y="200" width="20" height="28" rx="3" ry="3"
        fill="#766652" stroke="#3b2f24" stroke-width="3"
        transform="rotate(-12 98 214)"/>
  <rect x="150" y="200" width="20" height="28" rx="3" ry="3"
        fill="#766652" stroke="#3b2f24" stroke-width="3"
        transform="rotate(9 160 214)"/>

  <!-- Central altar / relic stone -->
  <rect x="112" y="112" width="32" height="32" rx="6" ry="6"
        fill="#a09277" stroke="#3b2f24" stroke-width="3"/>

  <!-- Mossy highlights -->
  <circle cx="120" cy="125" r="3" fill="#4f653f"/>
  <circle cx="135" cy="118" r="3" fill="#4f653f"/>
  <circle cx="95" cy="195" r="3" fill="#4f653f"/>
  <circle cx="165" cy="205" r="3" fill="#4f653f"/>
  <circle cx="45" cy="165" r="3" fill="#4f653f"/>
  <circle cx="210" cy="165" r="3" fill="#4f653f"/>

</svg>