<svg xmlns="http://www.w3.org/2000/svg" viewBox="0 0 512 512">

  <!-- Outer defensive earthwork / ditch -->
  <circle
    cx="256"
    cy="256"
    r="220"
    fill="none"
    stroke="#6b4c2e"
    stroke-width="8"
    stroke-dasharray="6 4"
  />

  <!-- Filled grass area up to outer palisade -->
  <circle
    cx="256"
    cy="256"
    r="195"
    fill="#cddbb3"
    stroke="#4b3a26"
    stroke-width="10"
  />

  <!-- Inner palisade ring -->
  <circle
    cx="256"
    cy="256"
    r="145"
    fill="none"
    stroke="#4b3a26"
    stroke-width="8"
  />

  <!-- Central keep / hall -->
  <circle
    cx="256"
    cy="256"
    r="70"
    fill="#c2a36c"
    stroke="#4b3a26"
    stroke-width="6"
  />
  <rect
    x="226"
    y="226"
    width="60"
    height="60"
    rx="10"
    ry="10"
    fill="#d7c08a"
    stroke="#4b3a26"
    stroke-width="4"
  />

  <!-- Gate in outer palisade (south) -->
  <path
    d="M256 451 L256 415"
    stroke="#4b3a26"
    stroke-width="10"
    stroke-linecap="round"
  />

  <!-- Path leading out of fort -->
  <path
    d="M256 451 C256 470, 256 490, 256 512"
    stroke="#bfa27b"
    stroke-width="8"
    fill="none"
    stroke-linecap="round"
  />

  <!-- Huts around inner ring -->
  <rect x="155" y="150" width="24" height="18" fill="#c2a36c" stroke="#4b3a26" stroke-width="3" transform="rotate(-20 167 159)" />
  <rect x="180" y="135" width="24" height="18" fill="#c2a36c" stroke="#4b3a26" stroke-width="3" transform="rotate(-8 192 144)" />
  <rect x="305" y="135" width="24" height="18" fill="#c2a36c" stroke="#4b3a26" stroke-width="3" transform="rotate(10 317 144)" />
  <rect x="335" y="155" width="24" height="18" fill="#c2a36c" stroke="#4b3a26" stroke-width="3" transform="rotate(22 347 164)" />
  <rect x="335" y="310" width="24" height="18" fill="#c2a36c" stroke="#4b3a26" stroke-width="3" transform="rotate(-15 347 319)" />
  <rect x="315" y="335" width="24" height="18" fill="#c2a36c" stroke="#4b3a26" stroke-width="3" transform="rotate(5 327 344)" />
  <rect x="165" y="320" width="24" height="18" fill="#c2a36c" stroke="#4b3a26" stroke-width="3" transform="rotate(-8 177 329)" />
  <rect x="140" y="300" width="24" height="18" fill="#c2a36c" stroke="#4b3a26" stroke-width="3" transform="rotate(-18 152 309)" />

  <!-- Outer ring huts -->
  <circle cx="256" cy="60" r="10" fill="#c2a36c" stroke="#4b3a26" stroke-width="3"/>
  <circle cx="430" cy="256" r="10" fill="#c2a36c" stroke="#4b3a26" stroke-width="3"/>
  <circle cx="256" cy="452" r="10" fill="#c2a36c" stroke="#4b3a26" stroke-width="3"/>
  <circle cx="82" cy="256" r="10" fill="#c2a36c" stroke="#4b3a26" stroke-width="3"/>

  <!-- Small trees / greenery -->
  <circle cx="210" cy="210" r="10" fill="#3f6b3a" stroke="#1f3b1c" stroke-width="2"/>
  <circle cx="302" cy="210" r="10" fill="#3f6b3a" stroke="#1f3b1c" stroke-width="2"/>
  <circle cx="210" cy="302" r="10" fill="#3f6b3a" stroke="#1f3b1c" stroke-width="2"/>
  <circle cx="302" cy="302" r="10" fill="#3f6b3a" stroke="#1f3b1c" stroke-width="2"/>

</svg>